<svg width="198" height="11" viewBox="0 0 198 11" fill="none" xmlns="http://www.w3.org/2000/svg">
    <path d="M84.7356 5.41937C85.4447 5.41937 86.0195 4.84456 86.0195 4.1355C86.0195 3.42643 85.4447 2.85162 84.7356 2.85162C84.0266 2.85162 83.4518 3.42643 83.4518 4.1355C83.4518 4.84456 84.0266 5.41937 84.7356 5.41937Z" fill="white"/>
    <path d="M112.981 2.85162C113.69 2.85162 114.265 2.27681 114.265 1.56775C114.265 0.858684 113.69 0.283875 112.981 0.283875C112.272 0.283875 111.697 0.858684 111.697 1.56775C111.697 2.27681 112.272 2.85162 112.981 2.85162Z" fill="white"/>
    <path d="M128.284 10.2711C128.993 10.2711 129.568 9.69625 129.568 8.98718C129.568 8.27812 128.993 7.70331 128.284 7.70331C127.575 7.70331 127 8.27812 127 8.98718C127 9.69625 127.575 10.2711 128.284 10.2711Z" fill="white"/>
    <path d="M139.839 8.98712C140.548 8.98712 141.123 8.41231 141.123 7.70325C141.123 6.99418 140.548 6.41937 139.839 6.41937C139.13 6.41937 138.555 6.99418 138.555 7.70325C138.555 8.41231 139.13 8.98712 139.839 8.98712Z" fill="white"/>
    <path d="M144.974 7.70325C145.683 7.70325 146.258 7.12844 146.258 6.41937C146.258 5.71031 145.683 5.1355 144.974 5.1355C144.265 5.1355 143.69 5.71031 143.69 6.41937C143.69 7.12844 144.265 7.70325 144.974 7.70325Z" fill="white"/>
    <path d="M147.542 2.56775C148.251 2.56775 148.826 1.99294 148.826 1.28387C148.826 0.57481 148.251 0 147.542 0C146.833 0 146.258 0.57481 146.258 1.28387C146.258 1.99294 146.833 2.56775 147.542 2.56775Z" fill="white"/>
    <path d="M169.368 10.2711C170.077 10.2711 170.652 9.69625 170.652 8.98718C170.652 8.27812 170.077 7.70331 169.368 7.70331C168.659 7.70331 168.084 8.27812 168.084 8.98718C168.084 9.69625 168.659 10.2711 169.368 10.2711Z" fill="white"/>
    <path d="M179.639 3.85162C180.348 3.85162 180.923 3.27681 180.923 2.56775C180.923 1.85868 180.348 1.28387 179.639 1.28387C178.93 1.28387 178.355 1.85868 178.355 2.56775C178.355 3.27681 178.93 3.85162 179.639 3.85162Z" fill="white"/>
    <path d="M78.3163 2.56775C79.0253 2.56775 79.6001 1.99294 79.6001 1.28387C79.6001 0.57481 79.0253 0 78.3163 0C77.6072 0 77.0324 0.57481 77.0324 1.28387C77.0324 1.99294 77.6072 2.56775 78.3163 2.56775Z" fill="white"/>
    <path d="M41.084 4.1355C41.793 4.1355 42.3678 3.56069 42.3678 2.85162C42.3678 2.14256 41.793 1.56775 41.084 1.56775C40.3749 1.56775 39.8001 2.14256 39.8001 2.85162C39.8001 3.56069 40.3749 4.1355 41.084 4.1355Z" fill="white"/>
    <path d="M23.1097 9.27099C23.8188 9.27099 24.3936 8.69618 24.3936 7.98712C24.3936 7.27806 23.8188 6.70325 23.1097 6.70325C22.4007 6.70325 21.8259 7.27806 21.8259 7.98712C21.8259 8.69618 22.4007 9.27099 23.1097 9.27099Z" fill="white"/>
    <path d="M8.98712 6.70325C9.69618 6.70325 10.271 6.12844 10.271 5.41937C10.271 4.71031 9.69618 4.1355 8.98712 4.1355C8.27806 4.1355 7.70325 4.71031 7.70325 5.41937C7.70325 6.12844 8.27806 6.70325 8.98712 6.70325Z" fill="white"/>
    <path d="M87.9453 6.70325C88.2999 6.70325 88.5873 6.41584 88.5873 6.06131C88.5873 5.70678 88.2999 5.41937 87.9453 5.41937C87.5908 5.41937 87.3034 5.70678 87.3034 6.06131C87.3034 6.41584 87.5908 6.70325 87.9453 6.70325Z" fill="white"/>
    <path d="M116.191 9.271C116.545 9.271 116.832 8.98359 116.832 8.62906C116.832 8.27453 116.545 7.98712 116.191 7.98712C115.836 7.98712 115.549 8.27453 115.549 8.62906C115.549 8.98359 115.836 9.271 116.191 9.271Z" fill="white"/>
    <path d="M122.61 2.85162C122.964 2.85162 123.252 2.56422 123.252 2.20969C123.252 1.85515 122.964 1.56775 122.61 1.56775C122.255 1.56775 121.968 1.85515 121.968 2.20969C121.968 2.56422 122.255 2.85162 122.61 2.85162Z" fill="white"/>
    <path d="M136.629 8.98718C136.984 8.98718 137.271 8.69978 137.271 8.34525C137.271 7.99071 136.984 7.70331 136.629 7.70331C136.275 7.70331 135.987 7.99071 135.987 8.34525C135.987 8.69978 136.275 8.98718 136.629 8.98718Z" fill="white"/>
    <path d="M152.036 1.28387C152.39 1.28387 152.677 0.996469 152.677 0.641937C152.677 0.287405 152.39 0 152.036 0C151.681 0 151.394 0.287405 151.394 0.641937C151.394 0.996469 151.681 1.28387 152.036 1.28387Z" fill="white"/>
    <path d="M159.739 2.56775C160.093 2.56775 160.381 2.28034 160.381 1.92581C160.381 1.57128 160.093 1.28387 159.739 1.28387C159.384 1.28387 159.097 1.57128 159.097 1.92581C159.097 2.28034 159.384 2.56775 159.739 2.56775Z" fill="white"/>
    <path d="M178.997 8.98718C179.351 8.98718 179.639 8.69978 179.639 8.34525C179.639 7.99071 179.351 7.70331 178.997 7.70331C178.642 7.70331 178.355 7.99071 178.355 8.34525C178.355 8.69978 178.642 8.98718 178.997 8.98718Z" fill="white"/>
    <path d="M182.849 1.28387C183.203 1.28387 183.49 0.996469 183.49 0.641937C183.49 0.287405 183.203 0 182.849 0C182.494 0 182.207 0.287405 182.207 0.641937C182.207 0.996469 182.494 1.28387 182.849 1.28387Z" fill="white"/>
    <path d="M196.971 1.28387C197.326 1.28387 197.613 0.996469 197.613 0.641937C197.613 0.287405 197.326 0 196.971 0C196.617 0 196.329 0.287405 196.329 0.641937C196.329 0.996469 196.617 1.28387 196.971 1.28387Z" fill="white"/>
    <path d="M63.5518 1.56775C63.9063 1.56775 64.1937 1.28034 64.1937 0.925811C64.1937 0.571279 63.9063 0.283875 63.5518 0.283875C63.1972 0.283875 62.9098 0.571279 62.9098 0.925811C62.9098 1.28034 63.1972 1.56775 63.5518 1.56775Z" fill="white"/>
    <path d="M78.9582 9.271C79.3127 9.271 79.6001 8.98359 79.6001 8.62906C79.6001 8.27453 79.3127 7.98712 78.9582 7.98712C78.6037 7.98712 78.3163 8.27453 78.3163 8.62906C78.3163 8.98359 78.6037 9.271 78.9582 9.271Z" fill="white"/>
    <path d="M46.8614 4.1355C47.2159 4.1355 47.5033 3.84809 47.5033 3.49356C47.5033 3.13903 47.2159 2.85162 46.8614 2.85162C46.5069 2.85162 46.2195 3.13903 46.2195 3.49356C46.2195 3.84809 46.5069 4.1355 46.8614 4.1355Z" fill="white"/>
    <path d="M13.4807 5.41937C13.8352 5.41937 14.1226 5.13197 14.1226 4.77743C14.1226 4.4229 13.8352 4.1355 13.4807 4.1355C13.1261 4.1355 12.8387 4.4229 12.8387 4.77743C12.8387 5.13197 13.1261 5.41937 13.4807 5.41937Z" fill="white"/>
    <path d="M87.9453 4.1355C89.0089 4.1355 89.8711 3.27328 89.8711 2.20969C89.8711 1.14609 89.0089 0.283875 87.9453 0.283875C86.8817 0.283875 86.0195 1.14609 86.0195 2.20969C86.0195 3.27328 86.8817 4.1355 87.9453 4.1355Z" fill="white"/>
    <path d="M105.92 6.70325C106.983 6.70325 107.845 5.84103 107.845 4.77743C107.845 3.71384 106.983 2.85162 105.92 2.85162C104.856 2.85162 103.994 3.71384 103.994 4.77743C103.994 5.84103 104.856 6.70325 105.92 6.70325Z" fill="white"/>
    <path d="M130.21 3.85162C131.273 3.85162 132.135 2.98941 132.135 1.92581C132.135 0.862215 131.273 0 130.21 0C129.146 0 128.284 0.862215 128.284 1.92581C128.284 2.98941 129.146 3.85162 130.21 3.85162Z" fill="white"/>
    <path d="M163.59 7.70325C164.654 7.70325 165.516 6.84103 165.516 5.77743C165.516 4.71384 164.654 3.85162 163.59 3.85162C162.527 3.85162 161.665 4.71384 161.665 5.77743C161.665 6.84103 162.527 7.70325 163.59 7.70325Z" fill="white"/>
    <path d="M186.7 3.85162C187.764 3.85162 188.626 2.98941 188.626 1.92581C188.626 0.862215 187.764 0 186.7 0C185.637 0 184.774 0.862215 184.774 1.92581C184.774 2.98941 185.637 3.85162 186.7 3.85162Z" fill="white"/>
    <path d="M194.403 6.41937C195.467 6.41937 196.329 5.55716 196.329 4.49356C196.329 3.42996 195.467 2.56775 194.403 2.56775C193.34 2.56775 192.478 3.42996 192.478 4.49356C192.478 5.55716 193.34 6.41937 194.403 6.41937Z" fill="white"/>
    <path d="M73.8227 9.27099C74.8863 9.27099 75.7485 8.40878 75.7485 7.34518C75.7485 6.28159 74.8863 5.41937 73.8227 5.41937C72.7591 5.41937 71.8969 6.28159 71.8969 7.34518C71.8969 8.40878 72.7591 9.27099 73.8227 9.27099Z" fill="white"/>
    <path d="M62.2679 6.70325C63.3315 6.70325 64.1937 5.84103 64.1937 4.77743C64.1937 3.71384 63.3315 2.85162 62.2679 2.85162C61.2043 2.85162 60.3421 3.71384 60.3421 4.77743C60.3421 5.84103 61.2043 6.70325 62.2679 6.70325Z" fill="white"/>
    <path d="M36.5904 7.98712C37.654 7.98712 38.5162 7.1249 38.5162 6.06131C38.5162 4.99771 37.654 4.1355 36.5904 4.1355C35.5268 4.1355 34.6646 4.99771 34.6646 6.06131C34.6646 7.1249 35.5268 7.98712 36.5904 7.98712Z" fill="white"/>
    <path d="M1.92589 4.1355C2.98948 4.1355 3.8517 3.27328 3.8517 2.20969C3.8517 1.14609 2.98948 0.283875 1.92589 0.283875C0.862291 0.283875 7.62939e-05 1.14609 7.62939e-05 2.20969C7.62939e-05 3.27328 0.862291 4.1355 1.92589 4.1355Z" fill="white"/>
</svg>
